<svg width="180" height="40" viewBox="0 0 180 40" fill="none" xmlns="http://www.w3.org/2000/svg">
<g clip-path="url(#clip0_438_294627)">
<path d="M121.159 16.888L122.072 17.0954C125.848 17.8838 130.412 19.0456 130.329 25.0622C130.329 30.8299 125.059 33.6515 120.122 33.6515C114.437 33.6515 111.491 31.4938 109.167 28.7137L113.358 24.5643C115.142 26.8465 117.466 27.9668 120.039 27.9668C122.196 27.9668 123.607 26.9295 123.607 25.3527C123.607 23.6929 122.321 23.1535 118.877 22.4481L117.964 22.2407C113.814 21.3693 110.412 19.0456 110.412 14.3154C110.412 9.12863 114.644 6.0166 120.204 6.0166C124.935 6.0166 127.964 8.04979 129.831 10.166L125.723 14.2324C125.04 13.476 124.209 12.8682 123.281 12.4471C122.353 12.0259 121.348 11.8003 120.329 11.7842C118.835 11.7842 117.134 12.4896 117.134 14.2324C117.134 15.8506 118.918 16.4315 121.159 16.888Z" fill="#ED0007"/>
<path fill-rule="evenodd" clip-rule="evenodd" d="M95.8892 6.0581C88.2543 6.0581 83.773 12.1577 83.773 19.8755C83.773 27.6349 88.2543 33.6929 95.8892 33.6929C103.566 33.6929 108.005 27.6349 108.005 19.8755C108.005 12.1577 103.566 6.0581 95.8892 6.0581ZM95.8892 27.3859C92.1547 27.3859 90.2875 24.0249 90.2875 19.8755C90.2875 15.7261 92.1547 12.4066 95.8892 12.4066C99.6236 12.4066 101.532 15.7676 101.532 19.8755C101.532 24.0664 99.6236 27.3859 95.8892 27.3859Z" fill="#ED0007"/>
<path fill-rule="evenodd" clip-rule="evenodd" d="M76.8435 19.3776C77.9293 18.9577 78.8609 18.2161 79.5135 17.252C80.1661 16.2879 80.5085 15.1475 80.495 13.9834C80.495 9.12862 77.051 6.72199 72.3207 6.72199H59.9141V33.112H73.3995C77.5489 33.112 81.6153 30.2075 81.6153 25.7676C81.6153 20.9274 77.5897 19.6228 76.9334 19.4101C76.8752 19.3912 76.8435 19.381 76.8435 19.3776ZM66.3871 12.1992H71.2004C71.5325 12.1791 71.8652 12.2298 72.1763 12.3478C72.4874 12.4659 72.77 12.6486 73.0053 12.8839C73.2406 13.1192 73.4233 13.4017 73.5413 13.7129C73.6594 14.024 73.71 14.3566 73.69 14.6888C73.6835 15.0207 73.6099 15.348 73.4736 15.6507C73.3373 15.9534 73.1411 16.2254 72.8968 16.4503C72.6526 16.6752 72.3653 16.8483 72.0524 16.9592C71.7394 17.07 71.4072 17.1164 71.0759 17.0954H66.3871V12.1992ZM71.2419 27.5934H66.3871V22.4066H71.1174C73.4825 22.4066 74.6029 23.444 74.6029 24.9792C74.6029 26.888 73.1921 27.5934 71.2419 27.5934Z" fill="#ED0007"/>
<path d="M145.101 27.3859C142.196 27.3859 139.167 24.9792 139.167 19.7095C139.167 15.0207 141.989 12.4066 144.935 12.4066C147.258 12.4066 148.628 13.4855 149.707 15.3527L155.018 11.8257C152.362 7.80083 149.209 6.09958 144.852 6.09958C136.885 6.09958 132.57 12.2822 132.57 19.751C132.57 27.5933 137.341 33.7344 144.769 33.7344C149.997 33.7344 152.487 31.9087 155.184 28.0083L149.831 24.3983C148.752 26.1411 147.59 27.3859 145.101 27.3859Z" fill="#ED0007"/>
<path d="M172.736 16.4315V6.72199H179.665V33.112H172.736V22.6971H164.727V33.112H157.798V6.72199H164.727V16.4315H172.736Z" fill="#ED0007"/>
<path fill-rule="evenodd" clip-rule="evenodd" d="M26.888 7.51037H28.2573C30.3233 8.87376 32.0189 10.7284 33.1921 12.9082C34.3653 15.0879 34.9793 17.5246 34.9793 20C34.9793 22.4754 34.3653 24.9121 33.1921 27.0918C32.0189 29.2716 30.3233 31.1262 28.2573 32.4896H26.888V25.6432H13.1535V32.4896H11.7427C9.67666 31.1262 7.98107 29.2716 6.80791 27.0918C5.63475 24.9121 5.02066 22.4754 5.02066 20C5.02066 17.5246 5.63475 15.0879 6.80791 12.9082C7.98107 10.7284 9.67666 8.87376 11.7427 7.51037H13.1535V14.3568H26.888V7.51037ZM7.99659 25.3675C8.75469 27.0553 9.86173 28.5634 11.2448 29.7925V10.2075C9.86173 11.4366 8.75469 12.9447 7.99659 14.6325C7.23849 16.3204 6.84654 18.1497 6.84654 20C6.84654 21.8503 7.23849 23.6796 7.99659 25.3675ZM13.1535 23.7344H26.888V16.2241H13.1535V23.7344ZM28.7552 29.751C30.1263 28.5191 31.2228 27.0123 31.9734 25.3288C32.724 23.6452 33.112 21.8225 33.112 19.9793C33.112 18.136 32.724 16.3133 31.9734 14.6297C31.2228 12.9462 30.1263 11.4395 28.7552 10.2075V29.751Z" fill="black"/>
<path fill-rule="evenodd" clip-rule="evenodd" d="M8.8886 3.37061C12.1776 1.17298 16.0444 0 20 0C25.3035 0.00286181 30.3889 2.11092 34.139 5.86102C37.8891 9.61112 39.9971 14.6965 40 20C40 23.9556 38.827 27.8224 36.6294 31.1114C34.4318 34.4004 31.3082 36.9638 27.6537 38.4776C23.9991 39.9913 19.9778 40.3874 16.0982 39.6157C12.2186 38.844 8.65492 36.9392 5.85787 34.1421C3.06082 31.3451 1.15601 27.7814 0.384305 23.9018C-0.387403 20.0222 0.00866686 16.0008 1.52242 12.3463C3.03617 8.69181 5.59962 5.56824 8.8886 3.37061ZM9.92597 35.0768C12.9079 37.0693 16.4137 38.1328 20 38.1328C24.8076 38.1278 29.4169 36.2158 32.8164 32.8163C36.2158 29.4169 38.1278 24.8076 38.1328 20C38.1328 16.4137 37.0693 12.9079 35.0769 9.92596C33.0844 6.94405 30.2525 4.61993 26.9391 3.2475C23.6258 1.87507 19.9799 1.51598 16.4625 2.21564C12.9451 2.91529 9.71411 4.64228 7.1782 7.17819C4.64228 9.7141 2.9153 12.9451 2.21564 16.4625C1.51599 19.9799 1.87508 23.6258 3.24751 26.9391C4.61994 30.2524 6.94406 33.0844 9.92597 35.0768Z" fill="black"/>
</g>
<defs>
<clipPath id="clip0_438_294627">
<rect width="180" height="40" fill="white"/>
</clipPath>
</defs>
</svg>
